<svg role="img" aria-label="adidas shoes and apparel" xmlns="http://www.w3.org/2000/svg" xmlns:xlink="http://www.w3.org/1999/xlink" version="1.1" width="100%" height="100%" viewBox="0 0 120 90">
    <title>adidas</title>
    <desc>adidas shoes and apparel</desc>

    <!-- <style type="text/css">
    	.st0{fill:rgba(51,51,51,0.5);}
    </style> -->
    <path class="st0" d="M62.7,63.6c-1.6,0.1-2.8,1.4-2.8,3c0.1,1.6,1.4,2.8,3,2.8c1.5-0.1,2.7-1.3,2.8-2.8
    	C65.7,64.9,64.3,63.6,62.7,63.6z"></path>
    <path class="st0" d="M35.3,63.6c-1.6,0.1-2.8,1.4-2.8,3c0.1,1.6,1.4,2.8,3,2.8c1.5-0.1,2.7-1.3,2.8-2.8
    	C38.3,64.9,36.9,63.6,35.3,63.6z"></path>
    <path class="st0" d="M74.5,63.6c-1.6,0-2.9,1.3-2.9,2.9c0,1.6,1.3,2.9,2.9,2.9l0,0c1.6,0,2.9-1.3,2.9-2.9
    	C77.4,64.9,76.1,63.6,74.5,63.6z"></path>
    <path class="st0" d="M47,63.6c-1.6,0-2.9,1.3-2.9,2.9c0,1.6,1.3,2.9,2.9,2.9s2.9-1.3,2.9-2.9C50,64.9,48.7,63.6,47,63.6z"></path>
    <path class="st0" d="M17,0.3v85.8l3.3,3.7l4.1-3.7l3.4,3.7l3.5-3.7l3.6,3.7l3.8-3.7l3.8,3.7l3.7-3.7l3.4,3.7l3.5-3.7l3.6,3.7
    	l3.5-3.7l3.7,3.7l3.6-3.7l3.7,3.7l3.6-3.7l3.4,3.7l3.7-3.7l3.5,3.7l3.4-3.7l3.4,3.7l3.9-3.7l3.5,3.7l3.6-3.7V0.3H17z M60.1,13.3
    	c4.1,3.9,7.9,12.5,7.9,20.8c0,1.5-0.1,2.9-0.2,4.2H52.5c-0.2-1.4-0.3-2.8-0.2-4.2C52.3,25.8,56,17.2,60.1,13.3z M40.4,47.4
    	c-0.8-0.6-1.6-1.3-2.3-2.1h43.8c-0.6,0.9-1.5,1.6-2.4,2.1H40.4z M76.6,49.7c-3.6,2.8-7.9,4.5-12.4,5c0-1.7,0.1-3.3,0.4-5H76.6z
    	 M36.3,42.9c-0.6-0.7-1.1-1.5-1.6-2.3h50.9c-0.4,0.8-1,1.6-1.6,2.3H36.3z M30.4,25c5.4,0.4,13.3,4,18.4,10.1c0.9,1,1.7,2.1,2.4,3.3
    	H33.6C31.2,33.6,30,28.9,30.4,25z M40.7,71.6h-2.5v-0.7c-0.9,0.6-2,0.9-3.1,0.9c-2.9,0-5.3-2.4-5.3-5.3c0-2.9,2.4-5.3,5.3-5.3
    	c1.1,0,2.2,0.3,3.1,0.9v-0.7h2.5V71.6z M52.5,71.6H50v-0.7c-0.9,0.6-1.9,0.9-3,0.9c-2.9,0-5.3-2.4-5.2-5.3c0-2.9,2.4-5.3,5.3-5.2
    	c1,0,2,0.3,2.9,0.9v-4.2h2.6L52.5,71.6L52.5,71.6z M43.6,49.7h12.1c0.2,1.7,0.3,3.3,0.2,5C51.4,54.2,47.2,52.5,43.6,49.7z
    	 M53.8,57.9h2.5v2.6h-2.5V57.9z M56.3,71.7h-2.5V61.4h2.5V71.7L56.3,71.7z M56.4,49.8H64c-1,2-2.3,3.8-3.8,5.4
    	C58.6,53.6,57.3,51.8,56.4,49.8L56.4,49.8z M68.2,71.6h-2.5v-0.7c-0.9,0.6-1.9,0.9-3,0.9c-2.9,0-5.3-2.4-5.2-5.3
    	c0-2.9,2.4-5.3,5.3-5.2c1,0,2,0.3,2.9,0.9v-4.2h2.5V71.6z M79.9,71.6h-2.6v-0.7c-0.9,0.6-1.9,0.9-3,0.9c-2.9,0-5.3-2.4-5.3-5.3
    	c0-2.9,2.4-5.3,5.3-5.3c0,0,0,0,0,0c1.1,0,2.1,0.3,3,0.9v-0.7h2.6C79.9,61.4,79.9,71.6,79.9,71.6z M85.4,71.8
    	c-2.9,0-4.6-1.4-4.6-3.5h2.7c0,0.7,0.4,1.6,2.1,1.6c1.7,0,1.7-0.7,1.7-1.2s-1.1-0.9-2.2-1c-0.9-0.1-1.8-0.4-2.6-0.7
    	c-0.9-0.5-1.4-1.5-1.4-2.5c0-1.8,1.5-3.3,4.2-3.3s4.2,1.4,4.3,3.3H87c-0.1-0.5-0.1-1.4-1.7-1.4c-1.6,0-1.7,0.2-1.8,0.9
    	c-0.1,0.7,2.1,1,3.8,1.4c1.7,0.4,2.6,1.4,2.6,2.8S87.9,71.8,85.4,71.8z M86.7,38.3H69.2c0.7-1.2,1.5-2.3,2.4-3.3
    	c5.1-6,13-9.7,18.5-10.1C90.3,28.9,89.1,33.6,86.7,38.3L86.7,38.3z"></path>
</svg>
