<svg role="img" aria-label="Diamond Supply Co Apparel" xmlns="http://www.w3.org/2000/svg" xmlns:xlink="http://www.w3.org/1999/xlink" version="1.1" width="100%" height="100%" viewBox="0 0 120 90">
	<title>Diamond Supply Co</title>
	<desc>Diamond Supply Co Apparel</desc>
	<style type="text/css">
		.st0{fill:rgba(51,51,51,0.5);}
	</style>
	<g>
<g>
	<path d="M28.113,65.82c-0.555-0.683-1.588-0.71-2.257-0.249c-0.679,0.932-0.159,2.652-0.189,3.789
		c1.176,2.207-0.032,5.497,2.082,7.446c0.663-0.08,1.331-0.253,1.724-0.904c-0.236-2.002-0.281-4.088-0.604-6.082
		C28.139,68.569,29.027,67.072,28.113,65.82z M81.418,83.738c-0.39-0.073-0.822-0.122-0.822-0.522c0-0.321,0.362-0.473,0.713-0.473
		c0.47,0,0.71,0.179,0.751,0.56h0.925c0-0.747-0.677-1.143-1.546-1.143c-0.925,0-1.868,0.378-1.868,1.228
		c0,0.653,0.862,0.893,1.482,1.018c0.391,0.086,1.032,0.115,1.032,0.552c0,0.396-0.516,0.493-0.899,0.493
		c-0.503,0-0.787-0.278-0.751-0.687h-0.983c-0.031,0.934,0.696,1.262,1.721,1.262c0.965,0,1.933-0.319,1.933-1.234
		C83.104,84.041,82.099,83.883,81.418,83.738z M87.231,84.255c0,0.628-0.038,1.195-0.979,1.195c-0.949,0-0.988-0.567-0.988-1.195
		V82.24h-0.967v2.319c0,0.986,0.862,1.466,1.955,1.466c1.084,0,1.941-0.479,1.941-1.466V82.24h-0.963V84.255z M90.904,82.24h-1.384
		v3.705h0.965v-1.425h0.699c1.002-0.023,1.557-0.466,1.557-1.138C92.741,82.442,91.904,82.25,90.904,82.24z M90.485,83.906v-1.047
		c0.534,0.021,1.232-0.135,1.232,0.523C91.718,84.037,91.02,83.883,90.485,83.906z M95.153,82.24h-1.385v3.705h0.965v-1.425h0.702
		c1-0.023,1.555-0.466,1.555-1.138C96.99,82.442,96.151,82.25,95.153,82.24z M94.733,83.906v-1.047
		c0.536,0.021,1.229-0.135,1.229,0.523C95.963,84.037,95.27,83.883,94.733,83.906z M99.006,82.24H98.04v3.705h2.908v-0.61h-1.942
		V82.24z M103.104,83.938l-0.927-1.697h-1.129l1.513,2.498v1.207h0.963v-1.207l1.517-2.498h-0.99L103.104,83.938z M109.835,82.743
		c0.582,0,0.866,0.312,0.86,0.699h1.025c-0.042-0.932-0.849-1.282-1.886-1.282c-1.294,0-1.888,0.846-1.888,1.936
		c0,1.081,0.594,1.93,1.888,1.93c1.037,0,1.844-0.347,1.886-1.28h-1.025c0.006,0.39-0.278,0.705-0.86,0.705
		c-0.683,0-0.854-0.838-0.854-1.354C108.981,83.577,109.152,82.743,109.835,82.743z M114.758,82.16
		c-1.487,0-2.155,0.842-2.155,1.936c0,1.095,0.668,1.93,2.155,1.93c1.485,0,2.154-0.835,2.154-1.93
		C116.912,83.002,116.243,82.16,114.758,82.16z M114.758,85.45c-0.954,0-1.131-0.719-1.131-1.354c0-0.64,0.177-1.353,1.131-1.353
		c0.949,0,1.134,0.713,1.134,1.353C115.892,84.731,115.707,85.45,114.758,85.45z M118.096,85.267v0.679h0.79v-0.679H118.096z
		 M116.994,73.891c-0.265,0.161-0.529,0.271-0.81,0.335c-0.027,0.072-0.076,0.15-0.176,0.197l0.005-0.158
		c-1.618,0.303-3.42-0.688-4.651-1.738c-3.772-3.796-6.109-8.496-6.366-13.528c0.645-3.209,1.227-7.655-0.498-10.917
		c-0.726-0.684-1.964-0.33-2.267,0.517l-0.277,7.479c-0.345,2.556,0.804,5.806-0.019,8.538l-3.057,1.536
		c-2.114,1.655-2.741,4.008-3.163,6.18c-0.96,0.643-2.388,0.023-3.6-0.487c-2.763-2.719-2.749-5.988-6.468-8.162
		c-1.214-0.505-2.266,0.133-3.13,0.772c-0.773,0.834-0.896,0.964-1.625,2.202c-0.676,0.551-0.508,1.146-1.364,1.599
		c-0.65-0.394-0.577-2.041-1.431-1.775c-0.942-0.027-1.066,1.11-1.543,1.482l-0.339-1.908c-0.546-0.678-1.685-0.326-2.433-0.816
		c-0.935-0.025-0.962,1.109-1.916,1.279c-1.933,1.852-3.601,4.746-6.708,4.388c-2.893-1.115-1.864-4.601-3.806-6.349
		c-1.583-0.804-2.938,0.587-4.191,1.693c-0.496,0.839-1.174,1.772-1.851,2.325c-0.904-1.445-1.146-3.253-2.724-4.239
		c-2.254-0.339-3.171,2.487-4.057,3.884c-0.262-0.858-0.901-1.825-1.935-1.755c-0.193,0.186-0.49,0.56-0.774,0.649
		c-0.127,1.509,0.491,3.046,0.275,4.272c-0.84-0.307-2.071-0.24-3.02-0.164c-3.383-0.182-3.374-4.639-5.69-6.308
		c-1.024-0.409-1.424,0.339-2.461,0.22c-0.565,0.082-0.769,0.646-0.87,1.115c-1.756,2.243-3.512,4.563-3.587,7.597
		c0.177,0.573,0.832,0.871,0.439,1.526c0.357,0.678,0.534,1.345,1.278,1.742c2.618,0.919,4.176-0.943,6.002-2.321
		c0.196-0.562,0.781-1.308,1.262-1.481c0.638,0.771,1.483,1.074,2.419,1.288c0.762-0.454,1.613-0.527,2.286-0.986
		c1.225,0.124,1.075-1.396,2.194-1.087c0.158,1.429,0.31,3.45,1.609,4.335c2.721,0.729,1.67-3.308,2.646-4.515
		c0.401-1.217,0.44-2.738,1.404-3.663c0.367,0.487,0.628,1.152,0.521,1.624c1.006,1.542,0.859,3.722,2.927,4.154
		c1.917-1.571,2.262-4.213,4.291-5.872c0.093,0,0.282-0.087,0.372,0.108c-0.003,0.183,0.088,0.376-0.099,0.47
		c0.801,1.819,1.896,3.358,3.176,4.812c1.199,1.071,2.628,0.546,3.959,0.192c0.122-1.038,1.324-0.343,1.722-1.19
		c0.254,1.34,0.977,2.877,2.377,3.377c1.683,0.613,3.026-0.305,4.273-1.221c1.154-1.007,1.668-2.896,1.429-4.516l0.091,0.004
		c0.831,0.876,0.474,4.062,1.205,4.937c0.546,0.679,1.277,1.546,2.228,1.384c1.44-0.918,1.108-2.815,1.712-4.324
		c0.035-1.515,0.578-4.345,1.596-4.75c0.478-0.082,1.204-0.287,1.572,0.196c1.28,1.833,1.796,2.234,2.78,4.249
		c1.093,1.545,2.552,4.408,4.819,4.089c1.05-0.548,2.466-0.19,3.064-1.509c0.924,0.684,1.656,2.489,2.983,2.145
		c1.697-0.152,2.971-1.918,3.753-3.135c0.896-1.877,0.65-4.235,1.362-6.111c0.658,0.111,0.919,0.876,1.002,1.447
		c2.543,3.762,5.271,8.188,10.275,8.122c0.94,0.117,1.336-0.818,1.728-1.38C116.572,75.501,116.877,74.655,116.994,73.891z
		 M33.779,73.737l-0.382-0.011c0.334-1.889,1.615-3.941,3.331-4.941l0.631,1.25C37.494,72.217,35.205,73.106,33.779,73.737z
		 M72.861,72.329c-0.283-0.011-0.472,0.172-0.752,0.074c0.031-1.141,0.99-2.062,1.853-2.708
		C74.127,70.65,74.003,71.977,72.861,72.329z M99.101,72.702l-0.285-0.011c0.033-1.425,0.641-3.206,2.264-3.736
		C101.039,70.374,100.342,71.881,99.101,72.702z M27.583,56.601c1.061-0.915,0.33-1.978,0.266-3.117
		c-0.827-0.97-1.759-1.56-3.082-1.404c-0.483,0.56-0.687,1.217-0.801,1.971c0.159,1.143,0.502,2.573,1.624,2.978
		C26.336,57.424,27.004,56.973,27.583,56.601z M23.43,66.175c-4.105-5.507-10.156-8.881-17.087-7.154
		c-1.816,1.092-4.001,1.61-5.457,3.279c0.177,0.666-0.036,1.517,0.521,2.006c0.179,0.383,0.466,0.199,0.744,0.305
		c1.63-1.101,3.532-1.619,5.337-2.145c5.208-1.014,10.363,0.438,13.458,5.071c-0.822,2.921-4.043,3.411-6.155,4.969l-0.007,0.188
		c-1.421,0.158-2.854,1.062-4.28,1.508l-0.191-0.097c0.928-3.114-0.122-6.452-0.144-9.397c-0.271-0.67-0.914-1.253-1.668-1.37
		c-1.145,0.54-0.978,1.399-1.189,2.438c1.444,2.693,0.119,6.739,2.526,8.696l-0.675,0.462c-0.292,0.366-0.673,0.83-0.308,1.221
		c-0.19,0.18-0.392,0.462-0.672,0.358c-0.481,0.562,0.459,0.68,0.633,1.156c0.677-0.553,1.801-0.24,2.455-0.126l2.955-1.071
		c1.802-0.522,3.515-1.146,5.23-1.957c2.393-1.362,5.185-3.757,4.599-6.814L23.43,66.175z"></path>
	<path d="M99.12,18.195L79.855,3.848L79.818,3.82H75.05l0,0h-0.004H42.697l-0.011-0.004L42.671,3.82h-4.708l-0.037,0.028
		L18.625,18.19l-0.133,0.095l0.12,0.107L47.37,44.957l0.179,0.192l0.022-0.008l11.277,10.423l0.086,0.07l0.09-0.07L99.13,18.399
		l0.12-0.107L99.12,18.195z M98.65,18.174h-1.972l-1.523-0.465l0.014-0.009L86.44,9.079L98.65,18.174z M96.31,18.334l-1.238,0.376
		l-1.223-0.376l1.223-0.375L96.31,18.334z M94.852,17.755l-1.368,0.419h-5.213L86.691,17.7l-1.208-9.203L94.852,17.755z
		 M30.949,17.968l0.125-0.05l0.955,0.374l-0.955,0.369l-0.958-0.369l0.772-0.305l-0.003,0.021L30.949,17.968z M44.76,17.677
		l2.609-9.432L58.725,17.7l-2.14,0.465v0.008h-9.614v-0.008L44.76,17.677z M44.595,17.914l1.737,0.378l-1.737,0.378l-1.724-0.378
		L44.595,17.914z M44.489,17.666l-2.256,0.5v0.008h-9.785l-0.01-0.003l-1.109-0.434l15.77-9.47L44.489,17.666z M32.38,18.434h9.916
		l1.98,0.426l10.021,25.087l-23-25.094L32.38,18.434z M44.587,18.937h0.008h0.034l2.278-0.502h9.749l2.15,0.473l-4.174,25.172
		L44.587,18.937z M57.222,18.292l1.735-0.374l1.731,0.374l-1.731,0.378L57.222,18.292z M73.312,17.687l-2.704-9.582l15.756,9.653
		l-1.365,0.416h-9.448L73.312,17.687z M74.939,18.312l-1.732,0.369l-1.729-0.369l1.729-0.378L74.939,18.312z M73.047,17.7
		l-2.176,0.474h-9.537v-0.008L59.166,17.7l11.161-9.636L73.047,17.7z M61.261,18.434h9.574l0,0l2.158,0.473l-9.82,25.161
		l-4.077-25.151L61.261,18.434z M73.255,18.941l2.323-0.507l0,0h9.29l0.048,0.014l1.496,0.461L63.52,43.875L73.255,18.941z
		 M85.401,18.324l1.227-0.375l0.091,0.024l0.016,0.008l0,0l1.137,0.343l-1.243,0.377L85.401,18.324z M79.737,4.088l4.38,3.256
		l-8.391-3.256H79.737z M75.094,4.114l9.804,3.817l0,0l0.278,0.203l0.003,0.027l1.229,9.314l-15.79-9.673L75.094,4.114z
		 M74.729,4.088l-4.369,3.583L59.728,4.088H74.729z M70.149,7.874l-11.202,9.668L47.554,8.057l11.469-3.934L70.149,7.874z
		 M58.329,4.088L47.32,7.857l-0.015-0.023l-0.012,0.011L42.99,4.088H58.329z M38.052,4.088h3.945l-8.324,3.247L38.052,4.088z
		 M32.911,7.913l9.725-3.798l4.425,3.872l-15.82,9.496l1.647-9.439L32.911,7.913z M30.934,17.688l-1.23,0.482l-0.008,0.003h-5.187
		l-1.453-0.441l9.5-9.333L30.934,17.688z M24.053,18.312l-1.228,0.367l-1.227-0.367l1.227-0.374L24.053,18.312z M32.029,8.557
		l-9.304,9.131l-1.578,0.485h-2.063L32.029,8.557z M19.036,18.434h2.076l1.676,0.507l0.021,0.007L44.743,42.18L19.036,18.434z
		 M23.093,18.875l1.444-0.44h5.228l1.212,0.473l15.846,25.091L23.093,18.875z M47.713,44.918l-15.78-24.986l22.64,24.695
		l4.187,10.501L47.713,44.918z M58.947,54.892l-4.136-10.348l4.136-24.915l4.039,24.908v0.007L58.947,54.892z M59.152,55.085
		l4.111-10.529l22.519-24.571L69.976,45.054L59.152,55.085z M86.75,18.937l1.604-0.489l0.048-0.014h4.873l0.085,0.027l1.53,0.467
		L70.894,44.097L86.75,18.937z M73.062,42.193l22.145-23.225l-0.017-0.021l1.604-0.486l0.086-0.027h1.83L73.062,42.193z"></path>
</g>
</g></svg>
