<svg role="img" aria-label="RIPNDIP Apparel" xmlns="http://www.w3.org/2000/svg" xmlns:xlink="http://www.w3.org/1999/xlink" version="1.1" width="100%" height="100%" viewBox="0 0 120 90">
	<title>RIPNDIP</title>
	<desc>RIPNDIP Apparel</desc>
	<style type="text/css">
		.st0{fill:rgba(51,51,51,0.5);}
	</style>
	<g id="XMLID_645_">
		<path id="XMLID_658_" d="M100.4,58.2c0,2.1,3.3,2.1,3.3,0V46.5c0-0.4,0-0.8-0.1-1.2c5.4,1.1,15.3-3.6,9.1-11.1
			c-2.5-3-9.6-7.1-12.2-2.1c-1.2,2.4-0.4,5.6-0.2,8C100.7,46.2,100.4,52.3,100.4,58.2 M105.2,33.9c2.4,0.4,4.5,1,5.6,3.2
			c3.1,6.5-7.3,5.1-7.5,4.8c-0.1-1.5-0.3-3.9-0.2-5.2C103.1,34.6,102.7,33.7,105.2,33.9"></path>
		<path id="XMLID_657_" d="M94.4,55.2c0-7.7-0.5-15.5-0.4-23.2c0-2.1-3.3-2.1-3.3,0c-0.1,7.7,0.4,15.5,0.4,23.2
			C91.2,57.3,94.4,57.3,94.4,55.2"></path>
		<path id="XMLID_654_" d="M70.6,55.6c0,0.3-0.2,4.6,2.4,2.7c2.3-1.7,5.9-1.4,8.5-2.9c2.6-1.6,5.7-3.5,6.6-6.6
			c1.6-5.5-2-12.6-5.9-16.3c-2.1-2-9.2-6.3-10.8-1.6c-0.4,1.2,0.2,2.8,0.4,3.9c0.3,2.6,0.1,5.3,0.1,7.9C71.9,47,71.2,51.3,70.6,55.6
			 M75.2,35c0-0.1-0.4-2.2-0.3-2.3c0.9-1.3,3.7,1,4.6,1.7c3,2.4,6.1,8.4,5.6,12.4c-0.8,5.9-6.5,5.9-10.9,7.3
			c0.5-3.6,1.1-7.1,1.1-10.8C75.2,40.6,75.4,37.8,75.2,35"></path>
		<path id="XMLID_653_" d="M49.1,58.2c1.1-1.8,0.9-4.8,1.1-6.9c0.3-3.8-0.6-9.7,0.8-13.5c2.8,2.2,4,9.5,5.1,12.2
			c1.2,2.9,2.4,7.6,5.2,9.3c0.8,0.5,2.2,0.1,2.4-1c0.8-4.9,0.2-10.2,0.1-15.1c0-3.7-0.9-7.6-0.9-11.1c0-2.1-3.2-2.1-3.3,0
			c-0.1,6.8,1.5,14.1,1.2,21.1c-0.4-1.1-0.8-2.2-1.1-2.9c-1.2-2.7-1.9-5.4-2.8-8.2c-0.8-2.7-3.4-7.4-6.4-8c-0.7-0.2-1.4,0.1-1.9,0.8
			c-2.1,3.4-1.3,8.1-1.6,11.9c-0.2,1.9-0.5,8.7-1,10.2C45.4,58.8,48,60,49.1,58.2"></path>
		<path id="XMLID_650_" d="M33.4,60.9c0,2.1,3.3,2.1,3.3,0c0-4.8-0.4-10.2-0.3-15c0.4,0,8.2-0.1,8.5-4.6c0.2-2.9-2.3-8-5.5-8.6
			c-2.8-0.5-5.4,1.2-6,3.9c-0.7,3.2-0.2,7.1-0.2,10.4C33.3,51.6,33.3,56.2,33.4,60.9 M39.3,36.6c1,0.5,1.8,2.3,1.8,3.3
			c0,2.5-2.3,2.6-4.7,2.7c0-0.6,0-1.1,0.1-1.7C36.7,38.8,36.8,35.3,39.3,36.6"></path>
		<path id="XMLID_649_" d="M24.9,32.8c0.7,1.6,0.5,5,0.7,6.5c0.3,2.4,0.3,4.8,0.5,7.2c0.5,4.3,1.1,9,1.1,13.4c0,2.1,3.3,2.1,3.3,0
			v-0.3c0,0,0,0,0-0.1c0-4.5-0.8-9.1-1.1-13.6c-0.3-4.3,0.4-11.2-1.8-15c-0.8-1.3-3.2-0.8-3.1,0.8c0,0.1,0,0.2,0,0.3
			C24.6,32.3,24.7,32.5,24.9,32.8"></path>
		<path id="XMLID_646_" d="M6.3,60.8c-0.2,1,0.6,2.4,2,2.1c0.1,0,0.2-0.1,0.4-0.1c0.5-0.1,1.1-0.6,1.1-1.1c0.8-5.5-0.3-11.6-0.9-17.1
			c-0.1-1.1-0.1-2.2-0.1-3.4c0.2,0.1,0.4,0.1,0.5,0.2c2.4,3,3.8,6.9,5.4,10.4c0.9,1.9,1.6,3.9,2.5,5.7c0.9,1.7,2.4,3.6,2.5,5.5
			c0.1,2.1,3.3,2.1,3.3,0c0-0.1,0-0.2,0-0.3c0-0.3,0-0.5-0.1-0.7c-0.3-1.5-0.9-2.7-1.7-4.2c-1.5-2.7-2.4-5.6-3.8-8.4
			c-1.3-2.6-2.4-5.3-3.9-7.8c2.9,0,6.1-0.2,7.7-2.8c1.9-3.1-0.1-7.2-2.8-9.2c-1.9-1.4-3.9-2.2-6.2-2.3c-2.3-0.1-4.7-0.3-6.6,1.1
			c-0.3,0.2-0.4,0.5-0.6,0.8c-0.2,0.4-0.3,0.9,0,1.5C5.7,31.8,5.7,49,6.5,56.4c0,0,0.2,2,0.1,2.5C6.6,59.4,6.3,60.8,6.3,60.8
			 M15.3,31.4c1.8,0.9,4.2,3.3,3.3,5.5c-0.7,1.7-3.2,1.4-4.7,1.5c-0.8,0-1.7,0-2.5-0.1c-0.1,0-2.2-0.3-2.4-0.5
			c0.1-2.3,0.1-5.1-0.4-7.1C10.6,30,13.7,30.5,15.3,31.4"></path>
	</g>
</svg>
