<svg role="img" aria-label="thrasher skate gearl" xmlns="http://www.w3.org/2000/svg" xmlns:xlink="http://www.w3.org/1999/xlink" version="1.1" width="100%" height="100%" viewBox="0 0 120 90">
	<title>thrasher</title>
	<desc>thrasher skate gear</desc>
	<style type="text/css">
		.st0{fill:rgba(51,51,51,0.5);}
	</style>
<g>
	<path fill-rule="evenodd" clip-rule="evenodd" d="M102.75,32.072c2.002,0,3.918,0,5.879,0c-0.67,4.846-1.335,9.658-2.002,14.484
		c0.129-0.006,0.189,0.01,0.212-0.014c1.713-1.746,3.459-3.466,4.755-5.566c0.953-1.545,1.062-3.198,0.144-4.741
		c-1.095-1.837-2.376-3.563-3.58-5.335c-0.127-0.187-0.274-0.361-0.446-0.583c1.593-0.887,3.155-1.758,4.762-2.651
		c2.089,2.368,4.233,4.673,5.693,7.512c1.169,2.275,1.144,4.523-0.299,6.61c-1.413,2.043-2.943,4.015-4.551,5.911
		c-0.789,0.93-1.004,1.75-0.734,2.947c0.86,3.816,1.582,7.664,2.354,11.502c0.008,0.039-0.017,0.086-0.009,0.049
		c-2.041-1.242-4.109-2.486-6.157-3.766c-0.191-0.119-0.304-0.426-0.373-0.668c-0.653-2.295-1.289-4.596-1.933-6.891
		c-0.054-0.193-0.133-0.379-0.2-0.566c-0.062,0-0.122-0.002-0.184-0.004c-0.304,2.084-0.607,4.168-0.917,6.289
		c-1.223-0.545-2.413-1.057-3.578-1.619c-0.174-0.084-0.336-0.414-0.325-0.621c0.125-2.371,0.28-4.742,0.436-7.113
		c0.12-1.822,0.253-3.645,0.38-5.467C102.3,38.559,102.521,35.347,102.75,32.072z"></path>
	<path fill-rule="evenodd" clip-rule="evenodd" d="M4.581,62.334c0.134-2.162,0.269-4.416,0.414-6.67
		c0.119-1.846,0.25-3.691,0.375-5.539c0.203-2.986,0.407-5.972,0.608-8.959c0.074-1.095,0.195-2.19,0.189-3.284
		c-0.003-0.567,0.218-0.801,0.685-0.996c0.821-0.341,1.622-0.73,2.431-1.1c0.194-0.09,0.386-0.185,0.54-0.436
		c-2.909,0-5.818,0-8.823,0c0.379-1.171,0.723-2.247,1.076-3.321c0.313-0.953,0.617-1.911,0.971-2.848
		c0.073-0.191,0.355-0.433,0.541-0.434c5.632-0.027,11.264-0.026,16.896-0.028c0.065,0,0.13,0.033,0.258,0.068
		c-0.427,1.351-0.849,2.694-1.275,4.034c-0.214,0.672-0.461,1.336-0.645,2.017c-0.103,0.38-0.285,0.503-0.672,0.494
		c-1.142-0.023-2.284-0.008-3.475-0.008c-0.186,1.212-0.374,2.379-0.542,3.549c-0.44,3.07-0.871,6.142-1.309,9.211
		c-0.434,3.049-0.884,6.094-1.297,9.145c-0.085,0.629-0.291,1.037-0.881,1.383C8.586,59.814,6.577,61.1,4.581,62.334z"></path>
	<path fill-rule="evenodd" clip-rule="evenodd" d="M21.162,32.076c2.066,0,4.071,0,6.181,0c-0.383,2.979-0.761,5.925-1.145,8.911
		c0.906,0,1.753,0,2.667,0c0.278-4.096,0.552-8.124,0.83-12.213c1.863,0,3.7,0,5.612,0c-0.113,0.891-0.216,1.765-0.335,2.638
		c-0.444,3.23-0.893,6.458-1.341,9.688c-0.414,2.981-0.822,5.961-1.263,8.94c-0.029,0.193-0.297,0.447-0.501,0.506
		c-1.203,0.34-2.42,0.629-3.699,0.953c0.186-2.768,0.371-5.516,0.558-8.311c-0.97,0-1.897,0-2.906,0
		c-0.231,1.576-0.469,3.168-0.699,4.762c-0.201,1.398-0.394,2.799-0.59,4.197c-0.051,0.369-0.224,0.578-0.611,0.703
		c-1.404,0.459-2.792,0.967-4.262,1.482C20.161,46.887,20.66,39.496,21.162,32.076z"></path>
	<path fill-rule="evenodd" clip-rule="evenodd" d="M89.112,50.793c0.062-1.121,0.118-2.303,0.194-3.482
		c0.27-4.171,0.54-8.343,0.838-12.513c0.017-0.225,0.244-0.526,0.452-0.626c0.64-0.308,1.318-0.535,1.981-0.793
		c-0.012-0.067-0.023-0.134-0.034-0.201c-0.894,0-1.787,0-2.792,0c0.484-1.478,0.92-2.837,1.39-4.184
		c0.047-0.135,0.309-0.275,0.471-0.275c3.409-0.011,6.819-0.002,10.228,0.005c0.041,0.001,0.081,0.037,0.15,0.069
		c-0.208,1.454-0.417,2.914-0.633,4.422c-1.685,0-3.325,0-5.078,0c-0.232,1.711-0.46,3.386-0.697,5.135c1.711,0,3.351,0,5.028,0
		c-0.172,1.42-0.345,2.772-0.496,4.126c-0.048,0.433-0.328,0.411-0.637,0.41c-1.486-0.005-2.972-0.003-4.565-0.003
		c-0.142,0.975-0.306,1.929-0.415,2.889c-0.118,1.045-0.089,1.021,0.938,1.25c1.109,0.248,2.21,0.537,3.304,0.848
		c0.178,0.051,0.437,0.324,0.42,0.471c-0.191,1.785-0.427,3.568-0.652,5.359C95.351,52.723,92.276,51.771,89.112,50.793z"></path>
	<path fill-rule="evenodd" clip-rule="evenodd" d="M43.895,27.73c1.174,1.299,2.394,2.513,3.455,3.853
		c1.76,2.223,1.872,4.647,0.446,7.081c-0.713,1.215-1.566,2.35-2.399,3.49c-0.252,0.345-0.309,0.582-0.095,0.969
		c0.857,1.553,1.676,3.129,2.553,4.782c-1.359,0.158-2.659,0.207-3.905,0.49c-1.005,0.229-1.398-0.176-1.805-0.973
		c-0.691-1.355-1.494-2.653-2.431-3.966c-0.101,0.582-0.219,1.16-0.297,1.744c-0.155,1.151-0.271,2.308-0.443,3.456
		c-0.028,0.191-0.234,0.469-0.403,0.506c-0.996,0.219-2.005,0.377-3.087,0.57c0.392-5.904,0.782-11.768,1.174-17.657
		c1.546,0,3.002,0,4.581,0c-0.413,3.148-0.822,6.265-1.231,9.382c1.917-1.419,3.513-3.003,3.447-5.568
		c-0.066-2.573-2.026-3.963-3.652-5.634C41.161,29.416,42.476,28.605,43.895,27.73z"></path>
	<path fill-rule="evenodd" clip-rule="evenodd" d="M55.701,41.043c1.221,0,2.333,0,3.571,0c-0.538-4.104-1.068-8.157-1.606-12.267
		c1.861,0,3.638,0,5.518,0c0.407,6.17,0.815,12.357,1.228,18.593c-1.425,0-2.806,0-4.232,0c-0.187-1.236-0.397-2.446-0.537-3.665
		c-0.051-0.442-0.188-0.58-0.625-0.571c-1.277,0.024-2.556,0.009-3.869,0.009c-0.312,1.305-0.629,2.556-0.903,3.819
		c-0.096,0.439-0.293,0.572-0.738,0.586c-1.296,0.037-2.591,0.131-3.989,0.207c1.032-5.237,2.059-10.452,3.09-15.688
		c1.741,0,3.429,0,5.193,0C57.102,35.052,56.408,38.02,55.701,41.043z"></path>
	<path fill-rule="evenodd" clip-rule="evenodd" d="M81.536,32.088c-0.403,2.992-0.8,5.925-1.211,8.983
		c0.691,0,1.319,0.018,1.944-0.017c0.104-0.006,0.272-0.229,0.283-0.363c0.2-2.39,0.374-4.781,0.564-7.171
		c0.125-1.57,0.265-3.139,0.405-4.777c1.727,0,3.424,0,5.162,0c-1.007,7.091-2.008,14.148-3.023,21.306
		c-1.27-0.252-2.504-0.494-3.794-0.748c0.157-2.043,0.312-4.042,0.471-6.104c-0.804,0-1.541,0-2.324,0
		c-0.265,1.872-0.526,3.737-0.796,5.645c-1.234-0.182-2.402-0.354-3.699-0.543c0.35-5.393,0.698-10.781,1.05-16.211
		C78.236,32.088,79.873,32.088,81.536,32.088z"></path>
	<path fill-rule="evenodd" clip-rule="evenodd" d="M76.401,28.731c-0.772,1.695-1.489,3.29-2.236,4.87
		c-0.073,0.156-0.328,0.308-0.507,0.319c-0.613,0.039-1.23,0.014-1.961,0.014c0.088-0.771,0.172-1.495,0.258-2.237
		c-1.173,0.341-2.041,1.904-1.514,3.011c0.551,1.157,1.238,2.303,2.094,3.249c1.842,2.037,1.896,4.213,0.773,6.519
		c-0.504,1.036-1.188,1.99-1.853,2.939c-0.156,0.221-0.567,0.387-0.853,0.377c-1.368-0.053-2.732-0.174-4.196-0.277
		c0.48-0.557,0.992-1.016,1.337-1.578c0.601-0.982,1.223-1.983,1.606-3.059c0.464-1.303,0.016-2.485-0.925-3.516
		c-0.749-0.821-1.456-1.695-2.085-2.613c-0.824-1.203-0.846-2.495-0.213-3.825c0.685-1.439,1.614-2.696,2.718-3.828
		c0.174-0.177,0.456-0.348,0.69-0.351C71.774,28.721,74.016,28.731,76.401,28.731z"></path>
</g>
</svg>
