<svg role="img" aria-label="vans shoes and apparel" xmlns="http://www.w3.org/2000/svg" xmlns:xlink="http://www.w3.org/1999/xlink" version="1.1" width="100%" height="100%" viewBox="0 0 120 90">
	<title>vans</title>
	<desc>vans shoes and apparel</desc>

	<style type="text/css">
		.st0{fill:rgba(51,51,51,0.5);}
	</style>

  <path d="M7.5,62.7H5.7L5.4,59h1.7L7.5,62.7z M112.5,62.7h1.7l0.3-3.7h-1.7L112.5,62.7z M4.4,59H2.7l0.3,3.7h1.8L4.4,59z M115.3,62.7
  	h1.7l0.3-3.7h-1.7L115.3,62.7z M16.3,63.6c0.1,1.3-0.8,2.4-2.1,2.5c0,0-0.1,0-0.1,0H14c-1.3,0-2.4-1.1-2.4-2.4l0,0
  	c-0.1-1.3,0.9-2.3,2.2-2.4c0.1,0,0.1,0,0.2,0C15.3,61.3,16.4,62.4,16.3,63.6L16.3,63.6 M9,63.7c0.1,2.6,2.2,4.7,4.9,4.7
  	c0,0,0.1,0,0.1,0c2.6,0.1,4.9-2,5-4.6c0-0.1,0-0.1,0-0.2l0,0c-0.1-2.6-2.2-4.7-4.9-4.7c0,0-0.1,0-0.1,0c-2.6-0.1-4.9,2-5,4.6
  	C9,63.5,9,63.6,9,63.7L9,63.7 M20.6,68.2h2.6v-3.3h4.3v-2.1h-4.4v-1.5H28v-2.2h-7.5L20.6,68.2L20.6,68.2L20.6,68.2z M29.5,68.2h2.6
  	v-3.3h4.4v-2.1H32v-1.5h4.9v-2.2h-7.5L29.5,68.2L29.5,68.2L29.5,68.2z M44.1,68.2h2.5v-6.9h2.8v-2.2h-8.1v2.2H44L44.1,68.2
  	L44.1,68.2L44.1,68.2z M51.2,68.2h2.6v-3.4h3.4v3.4h2.6v-9.1H57v3.4h-3.3v-3.4h-2.6L51.2,68.2L51.2,68.2L51.2,68.2z M61.4,68.2H69
  	V66h-5.1v-1.4h4.4v-2h-4.4v-1.3h4.9V59h-7.5L61.4,68.2L61.4,68.2L61.4,68.2z M76,68.3h2.2L80,63l1.9,5.3h2.2l3.1-9.2h-2.6l-1.6,5.3
  	L81.1,59h-2.2l-1.8,5.3L75.5,59h-2.7L76,68.3z M90.2,64.6l1.1-2.6l1.1,2.6H90.2z M86.1,68.2h2.7l0.7-1.6H93l0.7,1.6h2.8L92.5,59H90
  	L86.1,68.2z M97.7,68.2h7.1V66h-4.5v-6.9h-2.6L97.7,68.2C97.7,68.2,97.7,68.2,97.7,68.2z M106.2,68.2h7.1V66h-4.5v-6.9h-2.6
  	L106.2,68.2C106.2,68.2,106.2,68.2,106.2,68.2z"></path>
  <path d="M102.1,36.1h-5c-0.5-1.2-1.1-2.2-3.8-2.2c-2.8,0-2.8,0.8-2.8,1.6c0,0.9,0.7,1.6,2.8,2.1l4.5,1.2c2.6,0.6,4.5,3,4.4,5.7
  	c0.1,1.6-0.5,3.2-1.6,4.4c-1,1.1-2.5,2.4-7.4,2.4c-6.7,0-9-4.3-9-6.8h5.3c0.5,1.9,1.8,2.6,4.4,2.6c2.6,0,3.3-0.7,3.3-2
  	s-1.1-1.8-2.5-2.2l-3.5-1c-1.5-0.3-2.9-0.9-4.2-1.8c-2.2-1.9-2.5-5.3-0.6-7.6c0.3-0.3,0.6-0.6,0.9-0.9c1.7-1.3,3.7-1.9,5.8-1.8
  	c2.2-0.1,4.4,0.5,6.2,1.8C100.8,32.7,101.8,34.4,102.1,36.1 M17.9,21.6l10.4,29.3h6.2l9.6-24.2h59.4l0.5-5.1H39.5l-8,20.1l-7.1-20.1
  	L17.9,21.6 M69.2,40.5L77,50.9h4.9V30.2h-5.7v11.2l-7-11.2h-5.4v20.7h5.4V40.5L69.2,40.5z M104.1,49.9c0-0.6-0.5-1.1-1.1-1.1
  	s-1.1,0.5-1.1,1.1c0,0.6,0.5,1.1,1.1,1.1l0,0C103.6,51,104.1,50.5,104.1,49.9L104.1,49.9z M104,49.9c0,0.5-0.4,1-1,1s-1-0.4-1-1
  	c0-0.5,0.4-1,1-1S104,49.4,104,49.9L104,49.9z M103.5,49.7c0-0.2-0.2-0.4-0.4-0.4l0,0h-0.6v1.1h0.3v-0.4h0.2l0.3,0.4h0.3l-0.3-0.4
  	C103.5,50,103.6,49.9,103.5,49.7L103.5,49.7L103.5,49.7z M103.3,49.7c0,0.1-0.1,0.2-0.2,0.2h-0.3v-0.4h0.5V49.7z M39.6,50.9h5.9
  	l1.1-3.3h7.9l1.1,3.3h5.8l-7.5-20.7h-6.3L39.6,50.9z M48.4,43.9l2.3-6.9l2.3,6.9C53,43.9,48.4,43.9,48.4,43.9z"></path>
</svg>
