<?xml version="1.0" encoding="iso-8859-1"?>
<!-- Generator: Adobe Illustrator 17.1.0, SVG Export Plug-In . SVG Version: 6.00 Build 0)  -->
<!DOCTYPE svg PUBLIC "-//W3C//DTD SVG 1.1//EN" "http://www.w3.org/Graphics/SVG/1.1/DTD/svg11.dtd">
<svg version="1.1" id="Capa_1" xmlns="http://www.w3.org/2000/svg" xmlns:xlink="http://www.w3.org/1999/xlink" x="0px" y="0px"
	 viewBox="0 0 451.164 451.164" style="enable-background:new 0 0 451.164 451.164;" xml:space="preserve">
<g>
	<path style="fill:none;" d="M256.83,321.437c-6.439-4.218-13.469-6.288-20.57-6.311c10.484,19.761,13.389,47.26,1.85,79.689
		c1.43,0.379,26.241,6.95,33.878,8.973C286.909,363.635,275.65,333.765,256.83,321.437z"/>
	<path style="fill:#B4F0DF;" d="M156.988,310.498c4.455,2.321,10.173,3.939,17.366,4.951c3.651,0.513,7.037,0.773,10.064,0.773
		c1.902,0,3.723-0.09,5.471-0.295c3.627-3.715,7.486-6.95,11.515-9.685C187.358,298.18,170.861,299.905,156.988,310.498z"/>
	<path style="fill:#B4F0DF;" d="M214.828,291.038c2.888-8.499,5.323-19.716,7.411-34.462c2.496-17.531,4.35-31.972,4.024-43.13
		c-0.015-0.181-0.021-0.363-0.026-0.546c-0.175-4.851-0.768-9.08-1.925-12.647c-2.441-7.529-7.888-14.95-31.006-18.233
		c-4.518-0.644-8.637-0.97-12.245-0.97c-7.215,0-12.706,1.189-17.067,4.235c1.148-0.04,2.294-0.074,3.449-0.149
		c5.52-0.349,10.27,3.818,10.629,9.329c0.359,5.511-3.818,10.27-9.329,10.629c-2.857,0.186-5.699,0.278-8.521,0.278
		c-2.654,0-5.282-0.108-7.896-0.27c-2.826,9.636-5.061,22.776-7.562,40.458c-3.277,23.001-3.408,38.836-0.27,49.333
		c21.302-16.455,48.125-18.412,69.939-4.123C214.565,290.858,214.696,290.95,214.828,291.038z"/>
	<path style="fill:#F19C7D;" d="M203.485,138.133c17.53,0,32.322-11.918,36.725-28.076h-73.454
		C171.16,126.215,185.953,138.133,203.485,138.133z"/>
	<path style="fill:#6ECCAE;" d="M240.219,90.057C235.815,73.908,221.015,62,203.485,62c-17.531,0-32.333,11.908-36.737,28.057
		H240.219z"/>
	<path style="fill:#B4F0DF;" d="M203.484,42c6.065,0,10.999-4.934,10.999-10.999c0-6.066-4.934-11.001-10.999-11.001
		c-6.066,0-11.001,4.935-11.001,11.001C192.483,37.066,197.418,42,203.484,42z"/>
	<path d="M203.485,158.133c32.018,0,58.066-26.053,58.066-58.076c0-22.732-13.141-42.443-32.221-51.967
		c3.252-4.903,5.153-10.777,5.153-17.088C234.483,13.907,220.577,0,203.484,0c-17.094,0-31.001,13.907-31.001,31.001
		c0,6.312,1.901,12.186,5.154,17.089c-19.08,9.525-32.222,29.235-32.222,51.967C145.415,132.08,171.465,158.133,203.485,158.133z
		 M203.484,20c6.065,0,10.999,4.935,10.999,11.001c0,6.064-4.934,10.999-10.999,10.999c-6.066,0-11.001-4.934-11.001-10.999
		C192.483,24.935,197.418,20,203.484,20z M203.485,62c17.53,0,32.33,11.908,36.733,28.057h-73.47
		C171.152,73.908,185.954,62,203.485,62z M240.21,110.057c-4.403,16.158-19.195,28.076-36.725,28.076
		c-17.532,0-32.326-11.918-36.729-28.076H240.21z"/>
	<path d="M396.427,425.45c-4.717-2.871-10.87-1.374-13.741,3.344c-0.023,0.038-2.509,3.743-9.576,1.799
		c-0.963-0.255-81.443-21.592-81.709-21.662c17.713-49.575,1.676-87.66-23.612-104.225c-10.367-6.791-21.868-9.909-33.369-9.551
		c3.355-10.391,5.732-22.431,7.621-35.769c1.918-13.47,3.465-25.324,4.008-35.785c1.835,0.089,3.664,0.149,5.478,0.149
		c16.725,0,32.479-3.755,46.255-11.107c19.539-10.428,33.665-27.424,40.85-49.151c1.734-5.244-1.111-10.9-6.355-12.634
		c-5.242-1.733-10.9,1.111-12.634,6.354c-10.242,30.972-38.9,48.589-74.175,46.33c-0.473-3.344-1.169-6.494-2.13-9.46
		c-7.665-23.64-30.62-29.508-47.214-31.864c-5.521-0.787-10.448-1.169-15.062-1.169c-19.41,0-32.965,7.319-41.415,22.314
		c-15.352-3.073-29.066-9.609-39.516-19.133c-13.354-12.17-20.686-28.489-21.204-47.194c-0.153-5.521-4.75-9.858-10.273-9.719
		c-5.52,0.153-9.872,4.752-9.719,10.273c0.672,24.266,10.259,45.506,27.725,61.423c12.332,11.238,28.115,19.132,45.647,23.196
		c-3.027,11.192-5.09,24.609-7.344,40.542c-5.326,37.387-3.06,58.54,7.824,73.012c8.053,10.709,20.377,16.902,38.783,19.491
		c4.635,0.652,8.838,0.969,12.85,0.969c14.702,0,25.593-4.42,33.812-12.409c8.503,15.496,10.692,38.234,0.469,65.864
		c-2.134-0.565-130.394-34.474-141.427-37.27c-7.162-1.815-7.26-4.194-7.351-6.39c-0.23-5.517-4.885-9.759-10.404-9.528
		c-5.517,0.229-9.803,4.933-9.575,10.45c0.662,16.017,12.557,22.357,22.418,24.856c24.488,6.205,292.913,77.413,295.532,78.106
		c3.202,0.882,6.195,1.263,8.969,1.263c12.115,0,20.052-7.275,22.91-11.973C402.642,434.473,401.145,428.321,396.427,425.45z
		 M189.89,315.927c-1.748,0.206-3.57,0.295-5.471,0.295c-3.027,0-6.414-0.26-10.064-0.773c-7.193-1.012-12.911-2.63-17.366-4.951
		c13.873-10.593,30.37-12.319,44.416-4.257C197.376,308.977,193.517,312.212,189.89,315.927z M144.493,294.895
		c-3.138-10.498-3.007-26.332,0.27-49.333c2.501-17.682,4.737-30.822,7.562-40.458c2.613,0.161,5.242,0.27,7.896,0.27
		c2.822,0,5.665-0.092,8.521-0.278c5.511-0.359,9.688-5.118,9.329-10.629c-0.359-5.511-5.109-9.678-10.629-9.329
		c-1.155,0.075-2.301,0.11-3.449,0.149c4.362-3.047,9.853-4.235,17.067-4.235c3.608,0,7.727,0.326,12.245,0.97
		c23.118,3.283,28.564,10.703,31.006,18.233c1.157,3.567,1.75,7.796,1.925,12.647c0.005,0.183,0.011,0.365,0.026,0.546
		c0.326,11.157-1.528,25.598-4.024,43.13c-2.087,14.746-4.523,25.964-7.411,34.462c-0.132-0.088-0.263-0.18-0.396-0.267
		C192.618,276.483,165.795,278.44,144.493,294.895z M271.987,403.788c-7.636-2.023-32.448-8.594-33.878-8.973
		c11.539-32.429,8.634-59.928-1.85-79.689c7.102,0.023,14.131,2.094,20.57,6.311C275.65,333.765,286.909,363.635,271.987,403.788z"
		/>
</g>
<g>
</g>
<g>
</g>
<g>
</g>
<g>
</g>
<g>
</g>
<g>
</g>
<g>
</g>
<g>
</g>
<g>
</g>
<g>
</g>
<g>
</g>
<g>
</g>
<g>
</g>
<g>
</g>
<g>
</g>
</svg>
