<?xml version="1.0" encoding="iso-8859-1"?>
<!-- Generator: Adobe Illustrator 16.0.0, SVG Export Plug-In . SVG Version: 6.00 Build 0)  -->
<!DOCTYPE svg PUBLIC "-//W3C//DTD SVG 1.1//EN" "http://www.w3.org/Graphics/SVG/1.1/DTD/svg11.dtd">
<svg version="1.1" id="Capa_1" xmlns="http://www.w3.org/2000/svg" xmlns:xlink="http://www.w3.org/1999/xlink" x="0px" y="0px"
	 width="398.561px" height="398.562px" viewBox="0 0 398.561 398.562" style="enable-background:new 0 0 398.561 398.562;"
	 xml:space="preserve">
<g>
	<path d="M199.281,0C91.694,0,4.165,87.529,4.165,195.115c0,39.833,11.94,78.158,34.531,110.832
		c3.99,5.771,10.559,9.217,17.575,9.217h76.77l96.507,28.639v39.268c0,8.556,6.936,15.491,15.49,15.491s15.491-6.936,15.491-15.491
		v-53.146l49.069-92.949c56.598-3.051,76.451-23.975,80.053-28.43c3.07-3.803,4.746-8.541,4.746-13.429
		C394.397,87.529,306.868,0,199.281,0z M99.249,220.615c-9.146,0-16.56-7.414-16.56-16.561c0-9.146,7.414-16.56,16.56-16.56
		s16.56,7.414,16.56,16.56C115.808,213.201,108.394,220.615,99.249,220.615z M234.458,312.942l-80.932-24.017
		c0.104-0.369,0.205-0.722,0.312-1.102c8.105-28.8,19.749-56.917,64.333-56.917c6.166,0,12.864,0.552,19.908,1.64
		c12.773,1.971,25.032,3.34,36.659,4.098L234.458,312.942z"/>
</g>
<g>
</g>
<g>
</g>
<g>
</g>
<g>
</g>
<g>
</g>
<g>
</g>
<g>
</g>
<g>
</g>
<g>
</g>
<g>
</g>
<g>
</g>
<g>
</g>
<g>
</g>
<g>
</g>
<g>
</g>
</svg>
