<?xml version="1.0" encoding="iso-8859-1"?>
<!-- Generator: Adobe Illustrator 17.1.0, SVG Export Plug-In . SVG Version: 6.00 Build 0)  -->
<!DOCTYPE svg PUBLIC "-//W3C//DTD SVG 1.1//EN" "http://www.w3.org/Graphics/SVG/1.1/DTD/svg11.dtd">
<svg version="1.1" id="Capa_1" xmlns="http://www.w3.org/2000/svg" xmlns:xlink="http://www.w3.org/1999/xlink" x="0px" y="0px"
	 viewBox="0 0 470 470" style="enable-background:new 0 0 470 470;" xml:space="preserve">
<g>
	<path d="M447.671,22.311C433.284,7.923,414.155,0,393.808,0c-20.347,0-39.476,7.923-53.863,22.311
		c-5.875,5.875-14.551,15.654-26.56,29.19c-25.121,28.315-67.164,75.706-126.68,135.222
		C127.19,246.239,79.799,288.283,51.484,313.403c-13.536,12.009-23.316,20.686-29.191,26.561c-29.7,29.7-29.7,78.025,0,107.726
		C36.68,462.076,55.809,470,76.156,470c20.346,0,39.476-7.924,53.863-22.311c5.875-5.875,14.55-15.653,26.557-29.188
		c25.121-28.315,67.165-75.707,126.683-135.225c59.517-59.517,106.908-101.561,135.223-126.681
		c13.536-12.008,23.315-20.684,29.19-26.559c14.387-14.387,22.311-33.516,22.311-53.863
		C469.982,55.827,462.058,36.698,447.671,22.311z M271.727,132.183c4.482,0,8.791,1.112,12.619,3.199l-35.836,35.836
		c-5.078-9.361-4.091-21.159,2.961-29.57c0.725-0.766,1.448-1.531,2.165-2.29C258.553,134.729,264.943,132.183,271.727,132.183z
		 M330.613,216.356c-0.769,0.726-1.544,1.459-2.32,2.193c-4.741,3.967-10.663,6.13-16.919,6.13c-7.058,0-13.694-2.749-18.685-7.739
		l-34.344-34.344l37.37-37.37l34.344,34.344C340.171,189.682,340.351,206.014,330.613,216.356z M158.59,245.32
		c4.482,0,8.791,1.112,12.619,3.199l-35.845,35.845c-2.087-3.828-3.199-8.137-3.199-12.619c0-6.786,2.546-13.176,7.177-18.094
		c0.77-0.726,1.545-1.459,2.321-2.194C146.406,247.486,152.331,245.32,158.59,245.32z M218.497,328.347
		c-0.727,0.769-1.453,1.536-2.171,2.298c-4.918,4.627-11.306,7.171-18.089,7.171c-7.058,0-13.694-2.749-18.685-7.739l-34.344-34.344
		l37.37-37.37l34.344,34.344C226.668,302.453,227.189,317.976,218.497,328.347z M145.355,408.547
		c-11.834,13.34-20.385,22.979-25.943,28.536C107.858,448.637,92.496,455,76.156,455c-16.34,0-31.702-6.363-43.256-17.917
		c-23.852-23.852-23.852-62.661,0-86.513c5.558-5.558,15.198-14.11,28.54-25.946c14.146-12.55,33.037-29.31,55.811-50.345
		c0.455,7.594,2.954,14.795,7.229,20.971l-2.252,2.252c-2.929,2.929-2.929,7.678,0,10.606c1.464,1.464,3.384,2.197,5.303,2.197
		s3.839-0.732,5.303-2.197l1.768-1.768l34.344,34.344c7.224,7.224,16.647,11.442,26.758,12.048
		C174.666,375.508,157.906,394.4,145.355,408.547z M272.652,272.67c-11.786,11.786-22.878,23.088-33.302,33.872
		c-1.045-8.938-4.979-17.599-11.821-24.441l-34.344-34.344l1.768-1.768c2.929-2.929,2.929-7.678,0-10.606
		c-2.929-2.929-7.678-2.929-10.606,0l-2.252,2.251c-5.54-3.834-11.903-6.237-18.635-7.021
		c10.778-10.419,22.074-21.504,33.853-33.283c11.787-11.787,22.881-23.092,33.306-33.876c0.768,6.574,3.095,12.997,6.999,18.657
		l-2.253,2.253c-2.929,2.929-2.929,7.678,0,10.606c1.464,1.464,3.384,2.197,5.303,2.197s3.839-0.732,5.303-2.197l1.768-1.768
		l34.344,34.344c6.664,6.664,15.201,10.766,24.422,11.84C295.727,249.805,284.431,260.891,272.652,272.67z M437.065,119.43
		c-5.558,5.558-15.197,14.109-28.538,25.945c-14.15,12.553-33.047,29.318-55.83,50.362c-0.589-9.754-4.595-19.337-12.031-26.774
		l-34.344-34.344l1.768-1.768c2.929-2.929,2.929-7.678,0-10.606c-2.929-2.929-7.678-2.929-10.606,0l-2.252,2.252
		c-6.177-4.275-13.377-6.774-20.971-7.229c21.036-22.775,37.795-41.665,50.346-55.812c11.836-13.341,20.387-22.98,25.945-28.539
		C362.106,21.363,377.468,15,393.808,15c16.34,0,31.703,6.363,43.257,17.917s17.917,26.916,17.917,43.256
		S448.619,107.876,437.065,119.43z"/>
	<path d="M202.78,296.243l-19.692,19.692c-2.929,2.929-2.929,7.677,0,10.606c1.464,1.465,3.384,2.197,5.303,2.197
		s3.839-0.732,5.303-2.197l19.692-19.692c2.929-2.929,2.929-7.678,0-10.606C210.458,293.313,205.709,293.314,202.78,296.243z"/>
	<path d="M315.917,183.105l-19.692,19.692c-2.929,2.929-2.929,7.678,0,10.606c1.464,1.464,3.384,2.197,5.303,2.197
		s3.839-0.732,5.303-2.197l19.692-19.692c2.929-2.929,2.929-7.678,0-10.606C323.595,180.177,318.846,180.177,315.917,183.105z"/>
</g>
<g>
</g>
<g>
</g>
<g>
</g>
<g>
</g>
<g>
</g>
<g>
</g>
<g>
</g>
<g>
</g>
<g>
</g>
<g>
</g>
<g>
</g>
<g>
</g>
<g>
</g>
<g>
</g>
<g>
</g>
</svg>
